<svg width="72" height="17" viewBox="0 0 72 17" fill="none" xmlns="http://www.w3.org/2000/svg">
<path d="M0.5 15.0979V15.5979H1H4.81076H5.31076V15.0979V11.4126H6.92175C8.61911 11.4126 10.0847 10.9097 11.1317 9.95629C12.1839 8.99818 12.7678 7.62579 12.7678 5.98383C12.7678 4.36264 12.2003 2.98044 11.178 2.00471C10.1578 1.03109 8.72475 0.5 7.05884 0.5H1H0.5V1V15.0979ZM36.2012 10.6996L36.2086 10.1923H35.7012H32.192H31.7278L31.6934 10.6553C31.6581 11.1309 31.5168 11.4405 31.3489 11.6245C31.1882 11.8006 30.9699 11.8995 30.6842 11.8995C30.3535 11.8995 30.0988 11.7689 29.905 11.4784C29.6943 11.1626 29.5393 10.6274 29.5393 9.81119C29.5393 8.99498 29.6943 8.45983 29.905 8.144C30.0988 7.85352 30.3535 7.7229 30.6842 7.7229C30.9727 7.7229 31.1846 7.82118 31.3416 7.99548C31.508 8.18028 31.6493 8.493 31.6942 8.97625L31.7363 9.43007H32.192H35.7012H36.205L36.2012 8.92634C36.19 7.42622 35.6484 6.15084 34.6541 5.2545C33.6647 4.36254 32.273 3.8868 30.6294 3.8868C28.8059 3.8868 27.3044 4.47547 26.2589 5.54479C25.2152 6.61228 24.6737 8.10976 24.6737 9.83872C24.6737 11.5677 25.2152 13.0652 26.2589 14.1327C27.3044 15.202 28.8059 15.7906 30.6294 15.7906C32.2834 15.7906 33.6717 15.313 34.657 14.4109C35.6461 13.5052 36.1789 12.2171 36.2012 10.6996ZM47.9059 10.6996L47.9134 10.1923H47.406H43.8968H43.4325L43.3981 10.6553C43.3628 11.1309 43.2215 11.4405 43.0536 11.6245C42.8929 11.8006 42.6747 11.8995 42.3889 11.8995C42.0583 11.8995 41.8035 11.7689 41.6097 11.4784C41.399 11.1626 41.244 10.6274 41.244 9.81119C41.244 8.99498 41.399 8.45983 41.6097 8.144C41.8035 7.85352 42.0583 7.7229 42.3889 7.7229C42.6774 7.7229 42.8893 7.82118 43.0463 7.99548C43.2127 8.18028 43.3541 8.493 43.3989 8.97625L43.441 9.43007H43.8968H47.406H47.9097L47.906 8.92634C47.8948 7.42622 47.3531 6.15084 46.3588 5.2545C45.3694 4.36254 43.9778 3.8868 42.3341 3.8868C40.5106 3.8868 39.0092 4.47547 37.9636 5.54479C36.9199 6.61228 36.3784 8.10976 36.3784 9.83872C36.3784 11.5677 36.9199 13.0652 37.9636 14.1327C39.0092 15.202 40.5106 15.7906 42.3341 15.7906C43.9881 15.7906 45.3764 15.313 46.3617 14.4109C47.3508 13.5052 47.8836 12.2171 47.9059 10.6996ZM52.9764 15.325L54.9644 11.425V15.0979V15.5979H55.4644H59.0284H59.5284V15.0979V4.52448V4.02448H59.0284H55.4644H55.1588L55.0194 4.29654L53.031 8.17876V4.52448V4.02448H52.531H48.9669H48.4669V4.52448V15.0979V15.5979H48.9669H52.531H52.8373L52.9764 15.325ZM66.5132 15.0979V15.5979H67.0132H70.5224H71.0224V15.0979V4.52448V4.02448H70.5224H65.5876C63.9899 4.02448 62.6356 4.4298 61.6705 5.16647C60.6966 5.90989 60.1426 6.97627 60.1528 8.21364C60.1401 9.49043 60.8253 10.5409 61.9523 11.2192L60.0974 14.8715L59.7284 15.5979H60.5432H64.0249H64.3318L64.4708 15.3242L66.107 12.101H66.5132V15.0979ZM65.5876 7.86058H66.5132V8.81556H65.6699C64.7848 8.81556 64.7144 8.41796 64.7164 8.37377L64.7174 8.35115L64.7163 8.32852C64.7134 8.2672 64.8161 7.86058 65.5876 7.86058ZM5.31076 7.43881V4.55638H6.15412C6.73702 4.55638 7.13933 4.71204 7.39024 4.93761C7.63411 5.15684 7.79254 5.49344 7.79254 5.98383C7.79254 6.47079 7.6339 6.81701 7.38598 7.04511C7.13313 7.27775 6.73114 7.43881 6.15412 7.43881H5.31076ZM18.5665 15.7906C20.3899 15.7906 21.8914 15.202 22.937 14.1327C23.9807 13.0652 24.5222 11.5677 24.5222 9.83872C24.5222 8.10976 23.9807 6.61228 22.937 5.54479C21.8914 4.47547 20.3899 3.8868 18.5665 3.8868C16.7431 3.8868 15.2416 4.47547 14.1961 5.54479C13.1523 6.61228 12.6108 8.10976 12.6108 9.83872C12.6108 11.5677 13.1523 13.0652 14.1961 14.1327C15.2416 15.202 16.7431 15.7906 18.5665 15.7906ZM18.5939 11.9821C18.2851 11.9821 18.0326 11.8417 17.833 11.5106C17.6198 11.1571 17.4764 10.5908 17.4764 9.81119C17.4764 9.03157 17.6198 8.46527 17.833 8.11181C18.0326 7.78064 18.2851 7.6403 18.5939 7.6403C18.8646 7.6403 19.1058 7.76983 19.3041 8.10709C19.5134 8.46301 19.6566 9.03216 19.6566 9.81119C19.6566 10.5902 19.5134 11.1594 19.3041 11.5153C19.1058 11.8526 18.8646 11.9821 18.5939 11.9821Z" fill="white" stroke="#2A2C2F"/>
</svg>
