<svg width="87" height="18" viewBox="0 0 87 18" fill="none" xmlns="http://www.w3.org/2000/svg">
<path d="M0 17.4545H4.72321V12.2727H7.33965C11.3068 12.2727 13.9657 9.92898 13.9657 6.17046C13.9657 2.45455 11.3748 0 7.50954 0H0V17.4545ZM4.72321 8.59091V3.78409H6.38821C8.04472 3.78409 9.03864 4.67045 9.03864 6.17046C9.03864 7.66193 8.04472 8.59091 6.38821 8.59091H4.72321Z" fill="white"/>
<path d="M21.7726 17.6932C26.0201 17.6932 28.5346 14.9659 28.5346 10.9432C28.5346 6.92046 26.0201 4.19318 21.7726 4.19318C17.5251 4.19318 15.0106 6.92046 15.0106 10.9432C15.0106 14.9659 17.5251 17.6932 21.7726 17.6932ZM21.8066 14.2159C20.5493 14.2159 19.8018 12.9631 19.8018 10.9091C19.8018 8.85511 20.5493 7.60227 21.8066 7.60227C22.9959 7.60227 23.7434 8.85511 23.7434 10.9091C23.7434 12.9631 22.9959 14.2159 21.8066 14.2159Z" fill="white"/>
<path d="M36.7237 17.6932C40.5889 17.6932 42.959 15.4688 43.01 12H38.6606C38.5586 13.3722 37.8196 14.1136 36.7917 14.1136C35.5599 14.1136 34.7529 13.0568 34.7529 10.9091C34.7529 8.76136 35.5599 7.70455 36.7917 7.70455C37.828 7.70455 38.5331 8.44602 38.6606 9.81818H43.01C42.9845 6.40909 40.5634 4.19318 36.7237 4.19318C32.4762 4.19318 29.9617 6.92046 29.9617 10.9432C29.9617 14.9659 32.4762 17.6932 36.7237 17.6932Z" fill="white"/>
<path d="M51.231 17.6932C55.0962 17.6932 57.4663 15.4688 57.5173 12H53.1678C53.0659 13.3722 52.3268 14.1136 51.2989 14.1136C50.0672 14.1136 49.2602 13.0568 49.2602 10.9091C49.2602 8.76136 50.0672 7.70455 51.2989 7.70455C52.3353 7.70455 53.0404 8.44602 53.1678 9.81818H57.5173C57.4918 6.40909 55.0707 4.19318 51.231 4.19318C46.9835 4.19318 44.469 6.92046 44.469 10.9432C44.469 14.9659 46.9835 17.6932 51.231 17.6932Z" fill="white"/>
<path d="M63.8694 11.4545V4.36364H59.452V17.4545H63.8694L67.5052 10.3295V17.4545H71.9226V4.36364H67.5052L63.8694 11.4545Z" fill="white"/>
<path d="M81.8192 17.4545H86.1686V4.36364H80.0523C76.289 4.36364 73.9104 6.27273 73.9359 8.93182C73.9189 10.4233 74.8109 11.6591 76.3739 12.392L73.8 17.4545H78.1154L80.3156 13.125H81.8192V17.4545ZM81.8192 10.2955H80.1542C78.9054 10.2955 78.3278 9.68182 78.3533 9.10227C78.3278 8.55682 78.8715 7.875 80.0523 7.875H81.8192V10.2955Z" fill="white"/>
</svg>
